<svg width="48" height="48" viewBox="0 0 48 48" fill="none" xmlns="http://www.w3.org/2000/svg">
<rect width="48" height="48" rx="8" fill="#F4F6F8"/>
<path d="M24 18C23.2583 18 22.5333 18.2199 21.9166 18.632C21.2999 19.044 20.8193 19.6297 20.5355 20.3149C20.2516 21.0002 20.1774 21.7542 20.3221 22.4816C20.4667 23.209 20.8239 23.8772 21.3483 24.4017C21.8728 24.9261 22.541 25.2833 23.2684 25.4279C23.9958 25.5726 24.7498 25.4984 25.4351 25.2145C26.1203 24.9307 26.706 24.4501 27.118 23.8334C27.5301 23.2167 27.75 22.4917 27.75 21.75C27.75 20.7554 27.3549 19.8016 26.6517 19.0983C25.9484 18.3951 24.9946 18 24 18ZM24 24C23.555 24 23.12 23.868 22.75 23.6208C22.38 23.3736 22.0916 23.0222 21.9213 22.611C21.751 22.1999 21.7064 21.7475 21.7932 21.311C21.88 20.8746 22.0943 20.4737 22.409 20.159C22.7237 19.8443 23.1246 19.63 23.561 19.5432C23.9975 19.4564 24.4499 19.501 24.861 19.6713C25.2722 19.8416 25.6236 20.13 25.8708 20.5C26.118 20.87 26.25 21.305 26.25 21.75C26.25 22.3467 26.0129 22.919 25.591 23.341C25.169 23.7629 24.5967 24 24 24ZM24 13.5C21.8127 13.5025 19.7157 14.3725 18.1691 15.9191C16.6225 17.4657 15.7525 19.5627 15.75 21.75C15.75 24.6938 17.1103 27.8138 19.6875 30.7734C20.8455 32.1108 22.1489 33.3151 23.5734 34.3641C23.6995 34.4524 23.8498 34.4998 24.0037 34.4998C24.1577 34.4998 24.308 34.4524 24.4341 34.3641C25.856 33.3147 27.1568 32.1104 28.3125 30.7734C30.8859 27.8138 32.25 24.6938 32.25 21.75C32.2475 19.5627 31.3775 17.4657 29.8309 15.9191C28.2843 14.3725 26.1873 13.5025 24 13.5ZM24 32.8125C22.4503 31.5938 17.25 27.1172 17.25 21.75C17.25 19.9598 17.9612 18.2429 19.227 16.977C20.4929 15.7112 22.2098 15 24 15C25.7902 15 27.5071 15.7112 28.773 16.977C30.0388 18.2429 30.75 19.9598 30.75 21.75C30.75 27.1153 25.5497 31.5938 24 32.8125Z" fill="#0080C8"/>
</svg>
