<svg width="48" height="48" viewBox="0 0 48 48" fill="none" xmlns="http://www.w3.org/2000/svg">
<rect width="48" height="48" rx="8" fill="#F4F6F8"/>
<path d="M31.5 15H16.5C16.1022 15 15.7206 15.158 15.4393 15.4393C15.158 15.7206 15 16.1022 15 16.5V31.5C15 31.8978 15.158 32.2794 15.4393 32.5607C15.7206 32.842 16.1022 33 16.5 33H31.5C31.8978 33 32.2794 32.842 32.5607 32.5607C32.842 32.2794 33 31.8978 33 31.5V16.5C33 16.1022 32.842 15.7206 32.5607 15.4393C32.2794 15.158 31.8978 15 31.5 15ZM30 21.75H31.5V26.25H30V21.75ZM31.5 20.25H30V16.5H31.5V20.25ZM16.5 16.5H28.5V31.5H16.5V16.5ZM31.5 31.5H30V27.75H31.5V31.5ZM26.2266 27.5625C25.9839 26.6563 25.4084 25.875 24.615 25.3744C25.0363 24.9555 25.3238 24.421 25.441 23.8386C25.5582 23.2562 25.4999 22.652 25.2733 22.1028C25.0468 21.5536 24.6623 21.084 24.1686 20.7536C23.6748 20.4232 23.0941 20.2468 22.5 20.2468C21.9059 20.2468 21.3252 20.4232 20.8314 20.7536C20.3377 21.084 19.9532 21.5536 19.7267 22.1028C19.5001 22.652 19.4418 23.2562 19.559 23.8386C19.6762 24.421 19.9637 24.9555 20.385 25.3744C19.5921 25.8755 19.0168 26.6566 18.7734 27.5625C18.7237 27.7552 18.7526 27.9598 18.8537 28.1312C18.9548 28.3026 19.1198 28.4268 19.3125 28.4766C19.5052 28.5263 19.7098 28.4974 19.8812 28.3963C20.0526 28.2952 20.1768 28.1302 20.2266 27.9375C20.4741 26.9766 21.4509 26.25 22.5 26.25C23.5491 26.25 24.5269 26.9747 24.7734 27.9375C24.8232 28.1302 24.9474 28.2952 25.1188 28.3963C25.2902 28.4974 25.4948 28.5263 25.6875 28.4766C25.8802 28.4268 26.0452 28.3026 26.1463 28.1312C26.2474 27.9598 26.2763 27.7552 26.2266 27.5625ZM21 23.25C21 22.9533 21.088 22.6633 21.2528 22.4166C21.4176 22.17 21.6519 21.9777 21.926 21.8642C22.2001 21.7506 22.5017 21.7209 22.7926 21.7788C23.0836 21.8367 23.3509 21.9796 23.5607 22.1893C23.7704 22.3991 23.9133 22.6664 23.9712 22.9574C24.0291 23.2483 23.9994 23.5499 23.8858 23.824C23.7723 24.0981 23.58 24.3324 23.3334 24.4972C23.0867 24.662 22.7967 24.75 22.5 24.75C22.1022 24.75 21.7206 24.592 21.4393 24.3107C21.158 24.0294 21 23.6478 21 23.25Z" fill="#0080C8"/>
</svg>
