<svg width="40" height="40" viewBox="0 0 40 40" fill="none" xmlns="http://www.w3.org/2000/svg">
<rect width="40" height="40" rx="8" fill="#F4F6F8"/>
<path d="M29.4576 10.4553C29.3414 10.355 29.2 10.2882 29.0487 10.2623C28.8974 10.2364 28.7419 10.2522 28.5989 10.3081L9.59949 17.7434C9.33023 17.8482 9.10226 18.0375 8.94992 18.283C8.79758 18.5284 8.7291 18.8168 8.7548 19.1045C8.7805 19.3923 8.89898 19.6639 9.09241 19.8785C9.28584 20.0931 9.54375 20.2391 9.8273 20.2944L14.7501 21.2609V26.75C14.7491 27.049 14.838 27.3414 15.0052 27.5893C15.1723 27.8372 15.4101 28.0291 15.6876 28.1403C15.9647 28.2535 16.2695 28.2806 16.5622 28.2183C16.855 28.1559 17.1222 28.0069 17.3292 27.7906L19.7029 25.3288L23.4689 28.625C23.7406 28.866 24.091 28.9994 24.4542 29C24.6133 28.9999 24.7715 28.9749 24.9229 28.9259C25.1704 28.8474 25.3929 28.7055 25.5684 28.5142C25.744 28.3229 25.8663 28.0889 25.9232 27.8356L29.7286 11.2813C29.7626 11.132 29.7554 10.9762 29.7076 10.8307C29.6599 10.6852 29.5735 10.5554 29.4576 10.4553ZM23.7257 13.8303L15.3267 19.8453L10.6767 18.9331L23.7257 13.8303ZM16.2501 26.75V22.2988L18.5742 24.3369L16.2501 26.75ZM24.4561 27.5L16.7048 20.7031L27.8611 12.7072L24.4561 27.5Z" fill="#151B1E"/>
</svg>
