<svg width="100" height="100" viewBox="0 0 100 100" fill="none" xmlns="http://www.w3.org/2000/svg">
<rect width="100" height="100" rx="50" fill="#F4F6F8"/>
<path d="M57.5 43.25H54.9012L53.6234 41.3338C53.555 41.2311 53.4623 41.147 53.3535 41.0888C53.2448 41.0306 53.1233 41.0001 53 41H47C46.8767 41.0001 46.7552 41.0306 46.6465 41.0888C46.5377 41.147 46.445 41.2311 46.3766 41.3338L45.0978 43.25H42.5C41.9033 43.25 41.331 43.4871 40.909 43.909C40.4871 44.331 40.25 44.9033 40.25 45.5V56C40.25 56.5967 40.4871 57.169 40.909 57.591C41.331 58.0129 41.9033 58.25 42.5 58.25H57.5C58.0967 58.25 58.669 58.0129 59.091 57.591C59.5129 57.169 59.75 56.5967 59.75 56V45.5C59.75 44.9033 59.5129 44.331 59.091 43.909C58.669 43.4871 58.0967 43.25 57.5 43.25ZM58.25 56C58.25 56.1989 58.171 56.3897 58.0303 56.5303C57.8897 56.671 57.6989 56.75 57.5 56.75H42.5C42.3011 56.75 42.1103 56.671 41.9697 56.5303C41.829 56.3897 41.75 56.1989 41.75 56V45.5C41.75 45.3011 41.829 45.1103 41.9697 44.9697C42.1103 44.829 42.3011 44.75 42.5 44.75H45.5C45.6235 44.7501 45.7451 44.7197 45.854 44.6614C45.963 44.6032 46.0558 44.519 46.1244 44.4163L47.4012 42.5H52.5978L53.8756 44.4163C53.9442 44.519 54.037 44.6032 54.146 44.6614C54.2549 44.7197 54.3765 44.7501 54.5 44.75H57.5C57.6989 44.75 57.8897 44.829 58.0303 44.9697C58.171 45.1103 58.25 45.3011 58.25 45.5V56ZM50 46.25C49.1842 46.25 48.3866 46.4919 47.7083 46.9452C47.0299 47.3984 46.5012 48.0427 46.189 48.7964C45.8768 49.5502 45.7951 50.3796 45.9543 51.1797C46.1134 51.9799 46.5063 52.7149 47.0832 53.2918C47.6601 53.8687 48.3951 54.2616 49.1953 54.4207C49.9954 54.5799 50.8248 54.4982 51.5786 54.186C52.3323 53.8738 52.9766 53.3451 53.4298 52.6667C53.8831 51.9884 54.125 51.1908 54.125 50.375C54.1238 49.2814 53.6888 48.2329 52.9154 47.4596C52.1421 46.6862 51.0936 46.2512 50 46.25ZM50 53C49.4808 53 48.9733 52.846 48.5416 52.5576C48.1099 52.2692 47.7735 51.8592 47.5748 51.3795C47.3761 50.8999 47.3242 50.3721 47.4254 49.8629C47.5267 49.3537 47.7767 48.886 48.1438 48.5188C48.511 48.1517 48.9787 47.9017 49.4879 47.8004C49.9971 47.6992 50.5249 47.7511 51.0045 47.9498C51.4842 48.1485 51.8942 48.4849 52.1826 48.9166C52.471 49.3483 52.625 49.8558 52.625 50.375C52.625 51.0712 52.3484 51.7389 51.8562 52.2312C51.3639 52.7234 50.6962 53 50 53Z" fill="#ACAEB0"/>
</svg>
