<svg width="48" height="48" viewBox="0 0 48 48" fill="none" xmlns="http://www.w3.org/2000/svg">
<rect width="48" height="48" rx="8" fill="#F4F6F8"/>
<path d="M32.8472 26.8556L28.4306 24.8766L28.4184 24.8709C28.1892 24.7729 27.939 24.7335 27.6907 24.7564C27.4424 24.7793 27.2037 24.8638 26.9963 25.0022C26.9718 25.0183 26.9484 25.0358 26.9259 25.0547L24.6441 27C23.1984 26.2978 21.7059 24.8166 21.0038 23.3897L22.9519 21.0731C22.9706 21.0497 22.9884 21.0262 23.0053 21.0009C23.1407 20.794 23.2229 20.5569 23.2445 20.3105C23.2661 20.0642 23.2264 19.8164 23.1291 19.5891V19.5778L21.1444 15.1537C21.0157 14.8568 20.7944 14.6094 20.5136 14.4486C20.2328 14.2877 19.9075 14.222 19.5863 14.2612C18.3159 14.4284 17.1499 15.0523 16.3059 16.0163C15.4619 16.9804 14.9977 18.2187 15 19.5C15 26.9437 21.0563 33 28.5 33C29.7813 33.0023 31.0196 32.5381 31.9837 31.6941C32.9477 30.8501 33.5716 29.6841 33.7388 28.4137C33.7781 28.0926 33.7125 27.7674 33.5518 27.4866C33.3911 27.2058 33.144 26.9845 32.8472 26.8556ZM28.5 31.5C25.3185 31.4965 22.2682 30.2311 20.0186 27.9814C17.7689 25.7318 16.5035 22.6815 16.5 19.5C16.4965 18.5845 16.8263 17.6991 17.4279 17.009C18.0295 16.3189 18.8617 15.8714 19.7691 15.75C19.7687 15.7537 19.7687 15.7575 19.7691 15.7612L21.7378 20.1675L19.8 22.4869C19.7803 22.5095 19.7625 22.5336 19.7466 22.5591C19.6055 22.7755 19.5227 23.0248 19.5063 23.2827C19.4899 23.5406 19.5403 23.7983 19.6528 24.0309C20.5022 25.7681 22.2525 27.5053 24.0084 28.3537C24.2428 28.4652 24.502 28.5139 24.7608 28.4952C25.0196 28.4764 25.2692 28.3909 25.485 28.2469C25.5091 28.2307 25.5322 28.2131 25.5544 28.1944L27.8334 26.25L32.2397 28.2234C32.2397 28.2234 32.2472 28.2234 32.25 28.2234C32.1301 29.1321 31.6833 29.966 30.9931 30.5691C30.3028 31.1721 29.4166 31.5031 28.5 31.5Z" fill="#0080C8"/>
</svg>
