<svg width="48" height="48" viewBox="0 0 48 48" fill="none" xmlns="http://www.w3.org/2000/svg">
<rect width="48" height="48" rx="8" fill="#F4F6F8"/>
<path d="M20.25 21C20.25 20.8011 20.329 20.6103 20.4697 20.4697C20.6103 20.329 20.8011 20.25 21 20.25H27C27.1989 20.25 27.3897 20.329 27.5303 20.4697C27.671 20.6103 27.75 20.8011 27.75 21C27.75 21.1989 27.671 21.3897 27.5303 21.5303C27.3897 21.671 27.1989 21.75 27 21.75H21C20.8011 21.75 20.6103 21.671 20.4697 21.5303C20.329 21.3897 20.25 21.1989 20.25 21ZM21 24.75H27C27.1989 24.75 27.3897 24.671 27.5303 24.5303C27.671 24.3897 27.75 24.1989 27.75 24C27.75 23.8011 27.671 23.6103 27.5303 23.4697C27.3897 23.329 27.1989 23.25 27 23.25H21C20.8011 23.25 20.6103 23.329 20.4697 23.4697C20.329 23.6103 20.25 23.8011 20.25 24C20.25 24.1989 20.329 24.3897 20.4697 24.5303C20.6103 24.671 20.8011 24.75 21 24.75ZM24 26.25H21C20.8011 26.25 20.6103 26.329 20.4697 26.4697C20.329 26.6103 20.25 26.8011 20.25 27C20.25 27.1989 20.329 27.3897 20.4697 27.5303C20.6103 27.671 20.8011 27.75 21 27.75H24C24.1989 27.75 24.3897 27.671 24.5303 27.5303C24.671 27.3897 24.75 27.1989 24.75 27C24.75 26.8011 24.671 26.6103 24.5303 26.4697C24.3897 26.329 24.1989 26.25 24 26.25ZM33 16.5V26.6897C33.0006 26.8867 32.9621 27.082 32.8866 27.264C32.8111 27.446 32.7002 27.6112 32.5603 27.75L27.75 32.5603C27.6112 32.7002 27.446 32.8111 27.264 32.8866C27.082 32.9621 26.8867 33.0006 26.6897 33H16.5C16.1022 33 15.7206 32.842 15.4393 32.5607C15.158 32.2794 15 31.8978 15 31.5V16.5C15 16.1022 15.158 15.7206 15.4393 15.4393C15.7206 15.158 16.1022 15 16.5 15H31.5C31.8978 15 32.2794 15.158 32.5607 15.4393C32.842 15.7206 33 16.1022 33 16.5ZM16.5 31.5H26.25V27C26.25 26.8011 26.329 26.6103 26.4697 26.4697C26.6103 26.329 26.8011 26.25 27 26.25H31.5V16.5H16.5V31.5ZM27.75 27.75V30.4406L30.4397 27.75H27.75Z" fill="#0080C8"/>
</svg>
