<svg width="48" height="48" viewBox="0 0 48 48" fill="none" xmlns="http://www.w3.org/2000/svg">
<rect width="48" height="48" rx="8" fill="#F4F6F8"/>
<path d="M26.25 19.5C26.25 19.3011 26.329 19.1103 26.4696 18.9697C26.6103 18.829 26.8011 18.75 27 18.75H35.25C35.4489 18.75 35.6396 18.829 35.7803 18.9697C35.9209 19.1103 36 19.3011 36 19.5C36 19.6989 35.9209 19.8897 35.7803 20.0303C35.6396 20.171 35.4489 20.25 35.25 20.25H27C26.8011 20.25 26.6103 20.171 26.4696 20.0303C26.329 19.8897 26.25 19.6989 26.25 19.5ZM35.25 23.25H27C26.8011 23.25 26.6103 23.329 26.4696 23.4697C26.329 23.6103 26.25 23.8011 26.25 24C26.25 24.1989 26.329 24.3897 26.4696 24.5303C26.6103 24.671 26.8011 24.75 27 24.75H35.25C35.4489 24.75 35.6396 24.671 35.7803 24.5303C35.9209 24.3897 36 24.1989 36 24C36 23.8011 35.9209 23.6103 35.7803 23.4697C35.6396 23.329 35.4489 23.25 35.25 23.25ZM35.25 27.75H29.25C29.0511 27.75 28.8603 27.829 28.7196 27.9697C28.579 28.1103 28.5 28.3011 28.5 28.5C28.5 28.6989 28.579 28.8897 28.7196 29.0303C28.8603 29.171 29.0511 29.25 29.25 29.25H35.25C35.4489 29.25 35.6396 29.171 35.7803 29.0303C35.9209 28.8897 36 28.6989 36 28.5C36 28.3011 35.9209 28.1103 35.7803 27.9697C35.6396 27.829 35.4489 27.75 35.25 27.75ZM26.2265 29.8125C26.251 29.9079 26.2565 30.0072 26.2427 30.1048C26.2288 30.2023 26.1958 30.2961 26.1457 30.3809C26.0955 30.4657 26.0292 30.5398 25.9504 30.599C25.8716 30.6581 25.7819 30.7011 25.6865 30.7256C25.6254 30.7421 25.5623 30.7503 25.499 30.75C25.3327 30.7501 25.171 30.6949 25.0395 30.593C24.908 30.4912 24.814 30.3486 24.7725 30.1875C24.195 27.9431 21.9281 26.25 19.499 26.25C17.07 26.25 14.8031 27.9422 14.2256 30.1875C14.1759 30.3802 14.0516 30.5453 13.8802 30.6463C13.7088 30.7474 13.5042 30.7763 13.3115 30.7266C13.1188 30.6768 12.9538 30.5526 12.8527 30.3812C12.7516 30.2098 12.7227 30.0052 12.7725 29.8125C13.2965 27.7772 14.82 26.1291 16.7531 25.3125C16.0087 24.7392 15.4625 23.9473 15.191 23.0478C14.9195 22.1483 14.9363 21.1865 15.2392 20.2971C15.542 19.4076 16.1156 18.6353 16.8795 18.0884C17.6435 17.5415 18.5595 17.2474 19.499 17.2474C20.4386 17.2474 21.3546 17.5415 22.1185 18.0884C22.8825 18.6353 23.4561 19.4076 23.7589 20.2971C24.0617 21.1865 24.0785 22.1483 23.807 23.0478C23.5355 23.9473 22.9893 24.7392 22.245 25.3125C24.179 26.1291 25.7025 27.7772 26.2265 29.8125ZM19.5 24.75C20.0933 24.75 20.6733 24.5741 21.1667 24.2444C21.66 23.9148 22.0445 23.4462 22.2716 22.8981C22.4987 22.3499 22.5581 21.7467 22.4423 21.1647C22.3266 20.5828 22.0408 20.0482 21.6213 19.6287C21.2017 19.2091 20.6672 18.9234 20.0852 18.8076C19.5033 18.6919 18.9001 18.7513 18.3519 18.9784C17.8037 19.2054 17.3352 19.5899 17.0056 20.0833C16.6759 20.5766 16.5 21.1567 16.5 21.75C16.5 22.5457 16.816 23.3087 17.3786 23.8713C17.9413 24.4339 18.7043 24.75 19.5 24.75Z" fill="#0080C8"/>
</svg>
