<svg width="24" height="24" viewBox="0 0 24 24" fill="none" xmlns="http://www.w3.org/2000/svg">
<path d="M21.75 15.75H5.98688C6.23625 15.2588 6.48656 14.7534 6.73688 14.2397C8.14313 14.3944 9.79125 13.4166 11.6737 11.3203C12.1425 12.5822 13.0284 14.22 14.5406 14.25C15.39 14.2669 16.2384 13.7625 17.1113 12.7153C17.7478 13.4766 19.0594 14.25 21.75 14.25C21.9489 14.25 22.1397 14.171 22.2803 14.0303C22.421 13.8897 22.5 13.6989 22.5 13.5C22.5 13.3011 22.421 13.1103 22.2803 12.9697C22.1397 12.829 21.9489 12.75 21.75 12.75C18.8972 12.75 18.0534 11.7703 18 11.2397C18.0084 11.0787 17.9626 10.9196 17.8698 10.7879C17.7769 10.6561 17.6425 10.5593 17.4881 10.5131C17.3277 10.4649 17.1559 10.4709 16.9992 10.53C16.8425 10.5891 16.7095 10.6982 16.6209 10.8403C15.4894 12.5784 14.8041 12.7556 14.5659 12.75C13.7916 12.735 13.0041 10.92 12.7341 9.61688C12.7053 9.47731 12.6373 9.34883 12.5381 9.2465C12.4389 9.14417 12.3126 9.07222 12.174 9.03907C12.0354 9.00592 11.8902 9.01294 11.7555 9.05932C11.6207 9.1057 11.502 9.18951 11.4131 9.30094C9.51938 11.6766 8.25 12.4762 7.45969 12.6834C8.25563 10.9144 8.85 9.36094 9.23063 8.05313C9.87 5.85563 9.91688 4.31906 9.37219 3.35625C9.09094 2.85187 8.49656 2.25 7.30406 2.25C5.79844 2.25 4.61063 3.67313 4.04438 6.15469C3.70781 7.6275 3.6525 9.26813 3.8925 10.6547C4.1325 12.0413 4.63031 13.05 5.35406 13.6491C5.00438 14.3728 4.64813 15.0797 4.30125 15.75H2.25C2.05109 15.75 1.86032 15.829 1.71967 15.9697C1.57902 16.1103 1.5 16.3011 1.5 16.5C1.5 16.6989 1.57902 16.8897 1.71967 17.0303C1.86032 17.171 2.05109 17.25 2.25 17.25H3.50719C2.44594 19.2188 1.62094 20.5913 1.60781 20.6138C1.55434 20.6982 1.5183 20.7925 1.50179 20.8911C1.48528 20.9897 1.48865 21.0906 1.51169 21.1878C1.53473 21.2851 1.57698 21.3768 1.63596 21.4575C1.69494 21.5382 1.76946 21.6063 1.85513 21.6578C1.94081 21.7093 2.03591 21.7431 2.13486 21.7573C2.2338 21.7715 2.33459 21.7658 2.43129 21.7405C2.528 21.7152 2.61867 21.6709 2.69798 21.61C2.77729 21.5492 2.84364 21.4731 2.89313 21.3862C2.90719 21.3619 3.94969 19.6247 5.20875 17.25H21.75C21.9489 17.25 22.1397 17.171 22.2803 17.0303C22.421 16.8897 22.5 16.6989 22.5 16.5C22.5 16.3011 22.421 16.1103 22.2803 15.9697C22.1397 15.829 21.9489 15.75 21.75 15.75ZM5.50688 6.48844C5.88 4.85062 6.60281 3.75 7.30406 3.75C7.80375 3.75 7.96969 3.92437 8.06625 4.09406C8.3475 4.59375 8.6775 6.36187 6.03562 12.1931C5.26125 11.1356 4.99781 8.71875 5.50688 6.48844Z" fill="#151B1E"/>
</svg>
