<svg width="48" height="48" viewBox="0 0 48 48" fill="none" xmlns="http://www.w3.org/2000/svg">
<rect width="48" height="48" rx="8" fill="#F4F6F8"/>
<path d="M31.5 15.75H16.5C16.1022 15.75 15.7206 15.908 15.4393 16.1893C15.158 16.4706 15 16.8522 15 17.25V22.5C15 27.4425 17.3925 30.4378 19.3997 32.0803C21.5616 33.8484 23.7122 34.4494 23.8059 34.4738C23.9348 34.5088 24.0708 34.5088 24.1997 34.4738C24.2934 34.4494 26.4413 33.8484 28.6059 32.0803C30.6075 30.4378 33 27.4425 33 22.5V17.25C33 16.8522 32.842 16.4706 32.5607 16.1893C32.2794 15.908 31.8978 15.75 31.5 15.75ZM31.5 22.5C31.5 25.9753 30.2194 28.7962 27.6937 30.8831C26.5943 31.7885 25.344 32.493 24 32.9644C22.6736 32.5012 21.4387 31.8092 20.3513 30.9197C17.7956 28.8291 16.5 25.9969 16.5 22.5V17.25H31.5V22.5Z" fill="#0080C8"/>
</svg>
