<svg width="48" height="48" viewBox="0 0 48 48" fill="none" xmlns="http://www.w3.org/2000/svg">
<rect width="48" height="48" rx="8" fill="#F4F6F8"/>
<path d="M24 24.75C24 24.9489 23.921 25.1397 23.7803 25.2803C23.6397 25.421 23.4489 25.5 23.25 25.5H18.75C18.5511 25.5 18.3603 25.421 18.2197 25.2803C18.079 25.1397 18 24.9489 18 24.75C18 24.5511 18.079 24.3603 18.2197 24.2197C18.3603 24.079 18.5511 24 18.75 24H23.25C23.4489 24 23.6397 24.079 23.7803 24.2197C23.921 24.3603 24 24.5511 24 24.75ZM23.25 21H18.75C18.5511 21 18.3603 21.079 18.2197 21.2197C18.079 21.3603 18 21.5511 18 21.75C18 21.9489 18.079 22.1397 18.2197 22.2803C18.3603 22.421 18.5511 22.5 18.75 22.5H23.25C23.4489 22.5 23.6397 22.421 23.7803 22.2803C23.921 22.1397 24 21.9489 24 21.75C24 21.5511 23.921 21.3603 23.7803 21.2197C23.6397 21.079 23.4489 21 23.25 21ZM33.75 27.1378V33C33.7512 33.1322 33.7174 33.2624 33.6521 33.3774C33.5867 33.4923 33.4921 33.588 33.3779 33.6546C33.2637 33.7212 33.1339 33.7565 33.0017 33.7567C32.8695 33.757 32.7395 33.7224 32.625 33.6562L30.375 32.3681L28.125 33.6562C28.0105 33.7224 27.8805 33.757 27.7483 33.7567C27.6161 33.7565 27.4863 33.7212 27.3721 33.6546C27.2579 33.588 27.1633 33.4923 27.0979 33.3774C27.0326 33.2624 26.9988 33.1322 27 33V30.75H15.75C15.3522 30.75 14.9706 30.592 14.6893 30.3107C14.408 30.0294 14.25 29.6478 14.25 29.25V17.25C14.25 16.8522 14.408 16.4706 14.6893 16.1893C14.9706 15.908 15.3522 15.75 15.75 15.75H32.25C32.6478 15.75 33.0294 15.908 33.3107 16.1893C33.592 16.4706 33.75 16.8522 33.75 17.25V20.1122C34.2241 20.5662 34.6014 21.1115 34.8592 21.7152C35.1169 22.3189 35.2498 22.9686 35.2498 23.625C35.2498 24.2814 35.1169 24.9311 34.8592 25.5348C34.6014 26.1385 34.2241 26.6838 33.75 27.1378ZM27 29.25V27.1378C26.1827 26.3496 25.6662 25.3008 25.5396 24.1724C25.4129 23.044 25.6842 21.9069 26.3065 20.9571C26.9287 20.0073 27.863 19.3046 28.9481 18.9701C30.0332 18.6356 31.201 18.6904 32.25 19.125V17.25H15.75V29.25H27ZM32.25 28.125C31.656 28.3732 31.0187 28.5009 30.375 28.5009C29.7313 28.5009 29.094 28.3732 28.5 28.125V31.7081L30 30.8494C30.1133 30.7846 30.2416 30.7505 30.3722 30.7505C30.5027 30.7505 30.631 30.7846 30.7444 30.8494L32.2444 31.7081L32.25 28.125ZM33.75 23.625C33.75 22.9575 33.5521 22.305 33.1812 21.75C32.8104 21.1949 32.2833 20.7624 31.6666 20.5069C31.0499 20.2515 30.3713 20.1846 29.7166 20.3148C29.0619 20.4451 28.4605 20.7665 27.9885 21.2385C27.5165 21.7105 27.1951 22.3119 27.0648 22.9666C26.9346 23.6213 27.0015 24.2999 27.2569 24.9166C27.5124 25.5333 27.9449 26.0604 28.5 26.4312C29.055 26.8021 29.7075 27 30.375 27C30.8182 27 31.2571 26.9127 31.6666 26.7431C32.076 26.5735 32.4481 26.3249 32.7615 26.0115C33.0749 25.6981 33.3235 25.326 33.4931 24.9166C33.6627 24.5071 33.75 24.0682 33.75 23.625Z" fill="#0080C8"/>
</svg>
