<svg width="48" height="48" viewBox="0 0 48 48" fill="none" xmlns="http://www.w3.org/2000/svg">
<rect width="48" height="48" rx="8" fill="#F4F6F8"/>
<path d="M33 16.5H15C14.8011 16.5 14.6103 16.579 14.4697 16.7197C14.329 16.8603 14.25 17.0511 14.25 17.25V30C14.25 30.3978 14.408 30.7794 14.6893 31.0607C14.9706 31.342 15.3522 31.5 15.75 31.5H32.25C32.6478 31.5 33.0294 31.342 33.3107 31.0607C33.592 30.7794 33.75 30.3978 33.75 30V17.25C33.75 17.0511 33.671 16.8603 33.5303 16.7197C33.3897 16.579 33.1989 16.5 33 16.5ZM24 24.4828L16.9284 18H31.0716L24 24.4828ZM21.2541 24L15.75 29.0447V18.9553L21.2541 24ZM22.3641 25.0172L23.4891 26.0531C23.6274 26.1801 23.8084 26.2506 23.9963 26.2506C24.1841 26.2506 24.3651 26.1801 24.5034 26.0531L25.6284 25.0172L31.0659 30H16.9284L22.3641 25.0172ZM26.7459 24L32.25 18.9544V29.0456L26.7459 24Z" fill="#0080C8"/>
</svg>
