<svg width="48" height="48" viewBox="0 0 48 48" fill="none" xmlns="http://www.w3.org/2000/svg">
<rect width="48" height="48" rx="8" fill="#F4F6F8"/>
<path d="M32.25 15.75H15.75C15.3522 15.75 14.9706 15.908 14.6893 16.1893C14.408 16.4706 14.25 16.8522 14.25 17.25V30.75C14.25 31.1478 14.408 31.5294 14.6893 31.8107C14.9706 32.092 15.3522 32.25 15.75 32.25H32.25C32.6478 32.25 33.0294 32.092 33.3107 31.8107C33.592 31.5294 33.75 31.1478 33.75 30.75V17.25C33.75 16.8522 33.592 16.4706 33.3107 16.1893C33.0294 15.908 32.6478 15.75 32.25 15.75ZM32.25 30.75H15.75V17.25H32.25V30.75ZM29.25 21C29.25 21.1989 29.171 21.3897 29.0303 21.5303C28.8897 21.671 28.6989 21.75 28.5 21.75H19.5C19.3011 21.75 19.1103 21.671 18.9697 21.5303C18.829 21.3897 18.75 21.1989 18.75 21C18.75 20.8011 18.829 20.6103 18.9697 20.4697C19.1103 20.329 19.3011 20.25 19.5 20.25H28.5C28.6989 20.25 28.8897 20.329 29.0303 20.4697C29.171 20.6103 29.25 20.8011 29.25 21ZM29.25 24C29.25 24.1989 29.171 24.3897 29.0303 24.5303C28.8897 24.671 28.6989 24.75 28.5 24.75H19.5C19.3011 24.75 19.1103 24.671 18.9697 24.5303C18.829 24.3897 18.75 24.1989 18.75 24C18.75 23.8011 18.829 23.6103 18.9697 23.4697C19.1103 23.329 19.3011 23.25 19.5 23.25H28.5C28.6989 23.25 28.8897 23.329 29.0303 23.4697C29.171 23.6103 29.25 23.8011 29.25 24ZM29.25 27C29.25 27.1989 29.171 27.3897 29.0303 27.5303C28.8897 27.671 28.6989 27.75 28.5 27.75H19.5C19.3011 27.75 19.1103 27.671 18.9697 27.5303C18.829 27.3897 18.75 27.1989 18.75 27C18.75 26.8011 18.829 26.6103 18.9697 26.4697C19.1103 26.329 19.3011 26.25 19.5 26.25H28.5C28.6989 26.25 28.8897 26.329 29.0303 26.4697C29.171 26.6103 29.25 26.8011 29.25 27Z" fill="#0080C8"/>
</svg>
