<svg width="48" height="48" viewBox="0 0 48 48" fill="none" xmlns="http://www.w3.org/2000/svg">
<rect width="48" height="48" rx="8" fill="#F4F6F8"/>
<path d="M20.625 25.125C20.4025 25.125 20.185 25.059 20 24.9354C19.815 24.8118 19.6708 24.6361 19.5856 24.4305C19.5005 24.225 19.4782 23.9988 19.5216 23.7805C19.565 23.5623 19.6722 23.3618 19.8295 23.2045C19.9868 23.0472 20.1873 22.94 20.4055 22.8966C20.6238 22.8532 20.85 22.8755 21.0555 22.9606C21.2611 23.0458 21.4368 23.19 21.5604 23.375C21.684 23.56 21.75 23.7775 21.75 24C21.75 24.2984 21.6315 24.5845 21.4205 24.7955C21.2095 25.0065 20.9234 25.125 20.625 25.125ZM27.375 22.875C27.1525 22.875 26.935 22.941 26.75 23.0646C26.565 23.1882 26.4208 23.3639 26.3356 23.5695C26.2505 23.775 26.2282 24.0012 26.2716 24.2195C26.315 24.4377 26.4222 24.6382 26.5795 24.7955C26.7368 24.9528 26.9373 25.06 27.1555 25.1034C27.3738 25.1468 27.6 25.1245 27.8055 25.0394C28.0111 24.9542 28.1868 24.81 28.3104 24.625C28.434 24.44 28.5 24.2225 28.5 24C28.5 23.7016 28.3815 23.4155 28.1705 23.2045C27.9595 22.9935 27.6734 22.875 27.375 22.875ZM26.2247 27.1153C25.5567 27.5299 24.7862 27.7496 24 27.7496C23.2138 27.7496 22.4433 27.5299 21.7753 27.1153C21.607 27.0091 21.4034 26.9742 21.2093 27.0181C21.0152 27.0621 20.8465 27.1814 20.7403 27.3497C20.6341 27.518 20.5992 27.7216 20.6431 27.9157C20.6871 28.1098 20.8064 28.2785 20.9747 28.3847C21.8823 28.9505 22.9304 29.2504 24 29.2504C25.0696 29.2504 26.1177 28.9505 27.0253 28.3847C27.1936 28.2785 27.3129 28.1098 27.3569 27.9157C27.4008 27.7216 27.3659 27.518 27.2597 27.3497C27.1535 27.1814 26.9848 27.0621 26.7907 27.0181C26.5966 26.9742 26.393 27.0091 26.2247 27.1153ZM33.75 24C33.75 25.9284 33.1782 27.8134 32.1068 29.4168C31.0355 31.0202 29.5127 32.2699 27.7312 33.0078C25.9496 33.7458 23.9892 33.9389 22.0979 33.5627C20.2066 33.1865 18.4693 32.2579 17.1057 30.8943C15.7422 29.5307 14.8136 27.7934 14.4373 25.9021C14.0611 24.0108 14.2542 22.0504 14.9922 20.2688C15.7301 18.4873 16.9798 16.9645 18.5832 15.8932C20.1866 14.8218 22.0716 14.25 24 14.25C26.585 14.2527 29.0634 15.2808 30.8913 17.1087C32.7192 18.9366 33.7473 21.415 33.75 24ZM32.25 24C32.2474 21.8762 31.4269 19.8351 29.9589 18.3004C28.4909 16.7656 26.4881 15.8553 24.3666 15.7584C23.28 17.2856 23.25 18.7387 23.25 18.75C23.25 18.9489 23.329 19.1397 23.4697 19.2803C23.6103 19.421 23.8011 19.5 24 19.5C24.1989 19.5 24.3897 19.421 24.5303 19.2803C24.671 19.1397 24.75 18.9489 24.75 18.75C24.75 18.5511 24.829 18.3603 24.9697 18.2197C25.1103 18.079 25.3011 18 25.5 18C25.6989 18 25.8897 18.079 26.0303 18.2197C26.171 18.3603 26.25 18.5511 26.25 18.75C26.25 19.3467 26.013 19.919 25.591 20.341C25.169 20.7629 24.5967 21 24 21C23.4033 21 22.831 20.7629 22.409 20.341C21.9871 19.919 21.75 19.3467 21.75 18.75C21.75 18.6816 21.7622 17.4094 22.5431 15.8784C20.9985 16.1556 19.5649 16.8675 18.4106 17.9307C17.2563 18.994 16.4293 20.3644 16.0264 21.8811C15.6236 23.3978 15.6617 24.998 16.1363 26.4939C16.611 27.9897 17.5024 29.3191 18.706 30.3262C19.9096 31.3332 21.3755 31.9761 22.9316 32.1793C24.4877 32.3825 26.0695 32.1377 27.4914 31.4736C28.9132 30.8095 30.1162 29.7536 30.9591 28.4298C31.8019 27.106 32.2498 25.5693 32.25 24Z" fill="#0080C8"/>
</svg>
